<svg width="32" height="32" viewBox="0 0 32 32" fill="none" xmlns="http://www.w3.org/2000/svg">
<path fill-rule="evenodd" clip-rule="evenodd" d="M16.0623 3.00001C12.9614 2.99691 9.96067 4.07849 7.59794 6.05093C5.2352 8.02336 3.66487 10.7577 3.16838 13.764C2.67188 16.7702 3.28166 19.8519 4.88845 22.4567C6.49523 25.0615 8.99399 27.0192 11.9369 27.9789C12.5938 28.0969 12.8261 27.6957 12.8261 27.3574C12.8261 27.0191 12.8261 26.2481 12.8261 25.1782C9.18134 25.957 8.41234 23.4552 8.41234 23.4552C8.17054 22.6798 7.65685 22.0136 6.96244 21.5749C5.78491 20.7882 7.05857 20.7882 7.05857 20.7882C7.47135 20.8454 7.86544 20.9942 8.21102 21.2232C8.55659 21.4522 8.84458 21.7554 9.05317 22.1099C9.23041 22.4255 9.46937 22.7037 9.75633 22.9284C10.0433 23.1531 10.3726 23.3199 10.7254 23.4194C11.0782 23.5188 11.4475 23.5488 11.8121 23.5077C12.1767 23.4666 12.5295 23.3552 12.8501 23.1798C12.9004 22.5326 13.1845 21.9244 13.6512 21.4647C10.7514 21.1422 7.70742 20.0408 7.70742 15.1708C7.68751 13.8987 8.16648 12.6677 9.04516 11.7328C8.65381 10.6267 8.69955 9.41655 9.17333 8.34196C9.17333 8.34196 10.2708 7.99579 12.762 9.65581C14.9013 9.07894 17.1593 9.07894 19.2985 9.65581C21.7898 7.99579 22.8792 8.34196 22.8792 8.34196C23.3596 9.40518 23.4167 10.6066 23.0394 11.7092C23.9181 12.6441 24.3971 13.8751 24.3772 15.1472C24.3772 20.0722 21.3252 21.1501 18.4174 21.4411C18.7292 21.749 18.9699 22.119 19.1234 22.5263C19.2768 22.9335 19.3392 23.3683 19.3066 23.8014C19.3066 25.5164 19.3066 26.9011 19.3066 27.3181C19.3066 27.735 19.5389 28.0576 20.2037 27.9317C23.1132 26.9467 25.5745 24.9834 27.1529 22.3887C28.7313 19.7941 29.3252 16.735 28.8297 13.7519C28.3342 10.7689 26.7811 8.05383 24.4449 6.0864C22.1087 4.11898 19.1397 3.0258 16.0623 3.00001Z" fill="#231E1B"/>
</svg>
